<svg width="180" height="50" viewBox="0 0 180 50" fill="none" xmlns="http://www.w3.org/2000/svg">
<mask id="mask0_18284_294" style="mask-type:luminance" maskUnits="userSpaceOnUse" x="0" y="2" width="45" height="46">
<path d="M0.106445 2.68335H44.8002V47.4667H0.106445V2.68335Z" fill="white"/>
</mask>
<g mask="url(#mask0_18284_294)">
<mask id="mask1_18284_294" style="mask-type:luminance" maskUnits="userSpaceOnUse" x="0" y="2" width="45" height="46">
<path d="M12.0773 2.68335H32.6314C33.0231 2.68335 33.4148 2.7021 33.8044 2.74168C34.196 2.77918 34.5835 2.83752 34.9669 2.9146C35.3523 2.9896 35.7314 3.08543 36.1064 3.20002C36.4814 3.31252 36.8502 3.44585 37.2127 3.59585C37.5752 3.74585 37.9294 3.91252 38.2752 4.09793C38.621 4.28127 38.9564 4.48335 39.2814 4.7021C39.6085 4.91877 39.9231 5.1521 40.2252 5.40002C40.5294 5.65002 40.8189 5.91252 41.096 6.1896C41.3731 6.46668 41.6356 6.75627 41.8856 7.06043C42.1335 7.36252 42.3669 7.6771 42.5856 8.00418C42.8023 8.32918 43.0044 8.66668 43.1877 9.01252C43.3731 9.35627 43.5419 9.71043 43.6919 10.0729C43.8419 10.4354 43.9731 10.8042 44.0877 11.1792C44.2002 11.5542 44.296 11.9354 44.3731 12.3188C44.4481 12.7042 44.5064 13.0917 44.5439 13.4813C44.5835 13.8708 44.6023 14.2625 44.6023 14.6542V35.2084C44.6023 35.6 44.5835 35.9917 44.5439 36.3813C44.5064 36.7729 44.4481 37.1604 44.3731 37.5438C44.296 37.9292 44.2002 38.3083 44.0877 38.6833C43.9731 39.0583 43.8419 39.4271 43.6919 39.7896C43.5419 40.1521 43.3731 40.5063 43.1877 40.8521C43.0044 41.1979 42.8023 41.5334 42.5856 41.8604C42.3669 42.1854 42.1335 42.5 41.8856 42.8021C41.6356 43.1063 41.3731 43.3959 41.096 43.6729C40.8189 43.95 40.5294 44.2125 40.2252 44.4625C39.9231 44.7104 39.6085 44.9438 39.2814 45.1625C38.9564 45.3792 38.621 45.5813 38.2752 45.7667C37.9294 45.95 37.5752 46.1188 37.2127 46.2688C36.8502 46.4188 36.4814 46.55 36.1064 46.6646C35.7314 46.7771 35.3523 46.8729 34.9669 46.95C34.5835 47.025 34.196 47.0834 33.8044 47.1209C33.4148 47.1604 33.0231 47.1792 32.6314 47.1792H12.0773C11.6856 47.1792 11.2939 47.1604 10.9044 47.1209C10.5127 47.0834 10.1252 47.025 9.74186 46.95C9.35645 46.8729 8.97728 46.7771 8.60228 46.6646C8.22728 46.55 7.85853 46.4188 7.49603 46.2688C7.13353 46.1188 6.77936 45.95 6.43353 45.7667C6.0877 45.5813 5.75228 45.3792 5.42728 45.1625C5.1002 44.9438 4.78561 44.7104 4.48353 44.4625C4.17936 44.2125 3.88978 43.95 3.6127 43.6729C3.33561 43.3959 3.07311 43.1063 2.82311 42.8021C2.5752 42.5 2.34186 42.1854 2.12311 41.8604C1.90645 41.5334 1.70436 41.1979 1.52103 40.8521C1.33561 40.5063 1.16686 40.1521 1.01686 39.7896C0.866862 39.4271 0.735612 39.0583 0.621028 38.6833C0.508529 38.3083 0.412695 37.9292 0.335612 37.5438C0.260612 37.1604 0.202278 36.7729 0.164779 36.3813C0.125195 35.9917 0.106445 35.6 0.106445 35.2084V14.6542C0.106445 14.2625 0.125195 13.8708 0.164779 13.4813C0.202278 13.0917 0.260612 12.7042 0.335612 12.3188C0.412695 11.9354 0.508529 11.5542 0.621028 11.1792C0.735612 10.8042 0.866862 10.4354 1.01686 10.0729C1.16686 9.71043 1.33561 9.35627 1.52103 9.01252C1.70436 8.66668 1.90645 8.32918 2.12311 8.00418C2.34186 7.6771 2.5752 7.36252 2.82311 7.06043C3.07311 6.75627 3.33561 6.46668 3.6127 6.1896C3.88978 5.91252 4.17936 5.65002 4.48353 5.40002C4.78561 5.1521 5.1002 4.91877 5.42728 4.7021C5.75228 4.48335 6.0877 4.28127 6.43353 4.09793C6.77936 3.91252 7.13353 3.74585 7.49603 3.59585C7.85853 3.44585 8.22728 3.31252 8.60228 3.20002C8.97728 3.08543 9.35645 2.9896 9.74186 2.9146C10.1252 2.83752 10.5127 2.77918 10.9044 2.74168C11.2939 2.7021 11.6856 2.68335 12.0773 2.68335Z" fill="white"/>
</mask>
<g mask="url(#mask1_18284_294)">
<path d="M0.106445 47.1792H44.6023V2.68335H0.106445V47.1792Z" fill="url(#paint0_linear_18284_294)"/>
</g>
</g>
<mask id="mask2_18284_294" style="mask-type:luminance" maskUnits="userSpaceOnUse" x="10" y="12" width="25" height="25">
<path d="M10.1333 12.8H34.6666V36.8001H10.1333V12.8Z" fill="white"/>
</mask>
<g mask="url(#mask2_18284_294)">
<mask id="mask3_18284_294" style="mask-type:luminance" maskUnits="userSpaceOnUse" x="10" y="13" width="25" height="24">
<path fill-rule="evenodd" clip-rule="evenodd" d="M12.8459 23.9585L25.6751 33.7251C26.2918 34.1939 26.4314 35.0668 26.0043 35.7022L25.9522 35.7751C25.4668 36.4147 24.5439 36.5397 23.9043 36.0522L11.0751 26.2855C10.4584 25.8168 10.3189 24.9439 10.7459 24.3085L10.798 24.2376C11.2834 23.596 12.2064 23.471 12.8459 23.9585ZM21.9793 22.1397L33.3772 30.8147C34.2959 31.5147 34.4751 32.8376 33.7751 33.7564C33.0751 34.6772 31.7522 34.8564 30.8334 34.1564L19.4376 25.4814C18.5189 24.7814 18.3397 23.4585 19.0376 22.5397V22.5376C19.7376 21.6189 21.0605 21.4397 21.9793 22.1397ZM19.6168 13.3751L32.4459 23.1418C33.0647 23.6105 33.2022 24.4814 32.7772 25.1168L32.7251 25.1897C32.2376 25.8293 31.3147 25.9543 30.6751 25.4668L17.8459 15.7022C17.2293 15.2335 17.0918 14.3605 17.5168 13.7251L17.5689 13.6522C18.0564 13.0126 18.9772 12.8876 19.6168 13.3751Z" fill="white"/>
</mask>
<g mask="url(#mask3_18284_294)">
<path d="M10.3188 12.8877V36.5398H34.4751V12.8877H10.3188Z" fill="white"/>
</g>
</g>
<path fill-rule="evenodd" clip-rule="evenodd" d="M63.8376 33.5479C65.7355 33.5479 67.3209 33.1125 68.5897 32.2396C69.8584 31.3667 70.848 30.2479 71.5543 28.8792L67.5793 27.1563C67.2043 27.9292 66.7022 28.5188 66.073 28.9271C65.4438 29.3354 64.6751 29.5396 63.7709 29.5396C63.1959 29.5396 62.6563 29.4292 62.148 29.2104C61.6397 28.9896 61.1938 28.6792 60.8063 28.2813C60.4209 27.8854 60.1168 27.3979 59.8959 26.825C59.6751 26.25 59.5647 25.6104 59.5647 24.9042C59.5647 24.1979 59.6751 23.5563 59.8959 22.9834C60.1168 22.4084 60.4209 21.9229 60.8063 21.525C61.1938 21.1292 61.6397 20.8188 62.148 20.5979C62.6563 20.3771 63.1959 20.2667 63.7709 20.2667C64.6543 20.2667 65.3876 20.4604 65.973 20.8459C66.5584 21.2334 67.0376 21.8021 67.4147 22.5521L71.3876 20.8959C70.7918 19.5271 69.8543 18.4125 68.573 17.5521C67.2918 16.6896 65.7147 16.2604 63.8376 16.2604C62.5793 16.2604 61.4251 16.475 60.3751 16.9063C59.3272 17.3354 58.4209 17.9313 57.6605 18.6938C56.898 19.4563 56.3022 20.3667 55.8709 21.4271C55.4418 22.4854 55.2251 23.6459 55.2251 24.9042C55.2251 26.1625 55.4418 27.3167 55.8709 28.3646C56.3022 29.4146 56.898 30.325 57.6605 31.0979C58.4209 31.8709 59.3272 32.4709 60.3751 32.9021C61.4251 33.3334 62.5793 33.5479 63.8376 33.5479ZM81.8876 33.5479C83.1459 33.5479 84.3001 33.3334 85.348 32.9021C86.3959 32.4709 87.3022 31.875 88.0647 31.1146C88.8251 30.3521 89.4209 29.4417 89.8522 28.3813C90.2834 27.3209 90.498 26.1625 90.498 24.9042C90.498 23.6459 90.2834 22.4854 89.8522 21.4271C89.4209 20.3667 88.8251 19.4563 88.0647 18.6938C87.3022 17.9313 86.3959 17.3354 85.348 16.9063C84.3001 16.475 83.1459 16.2604 81.8876 16.2604C80.6293 16.2604 79.4751 16.475 78.4251 16.9063C77.3772 17.3354 76.4709 17.9313 75.7105 18.6938C74.948 19.4563 74.3522 20.3667 73.9209 21.4271C73.4918 22.4854 73.2751 23.6459 73.2751 24.9042C73.2751 26.1625 73.4918 27.3209 73.9209 28.3813C74.3522 29.4417 74.948 30.3521 75.7105 31.1146C76.4709 31.875 77.3772 32.4709 78.4251 32.9021C79.4751 33.3334 80.6293 33.5479 81.8876 33.5479ZM81.8876 29.5396C81.3126 29.5396 80.7709 29.4354 80.2647 29.225C79.7563 29.0167 79.3043 28.7125 78.9063 28.3146C78.5084 27.9188 78.1938 27.4313 77.9626 26.8584C77.7313 26.2834 77.6147 25.6334 77.6147 24.9042C77.6147 24.175 77.7313 23.5229 77.9626 22.95C78.1938 22.375 78.5084 21.8896 78.9063 21.4917C79.3043 21.0959 79.7563 20.7917 80.2647 20.5813C80.7709 20.3729 81.3126 20.2667 81.8876 20.2667C82.4397 20.2667 82.9751 20.3729 83.4938 20.5813C84.0126 20.7917 84.4709 21.0959 84.8668 21.4917C85.2647 21.8896 85.5793 22.375 85.8126 22.95C86.0438 23.5229 86.1584 24.175 86.1584 24.9042C86.1584 25.6334 86.0438 26.2834 85.8126 26.8584C85.5793 27.4313 85.2647 27.9188 84.8668 28.3146C84.4709 28.7125 84.0126 29.0167 83.4938 29.225C82.9751 29.4354 82.4397 29.5396 81.8876 29.5396ZM97.6189 33.0188V25.1354C97.6189 24.4521 97.6959 23.8104 97.8501 23.2146C98.0043 22.6188 98.2251 22.1063 98.5126 21.675C98.8001 21.2438 99.1543 20.9021 99.573 20.6479C99.9918 20.3938 100.477 20.2667 101.029 20.2667C102.929 20.2667 103.879 21.3709 103.879 23.5792V33.0188H108.217V25.1354C108.217 24.4521 108.3 23.8104 108.465 23.2146C108.631 22.6188 108.863 22.1063 109.161 21.675C109.458 21.2438 109.829 20.9021 110.271 20.6479C110.713 20.3938 111.219 20.2667 111.794 20.2667C113.604 20.2667 114.511 21.3709 114.511 23.5792V33.0188H118.848V22.7834C118.848 21.8354 118.727 20.9563 118.483 20.1521C118.242 19.3459 117.881 18.6563 117.408 18.0813C116.933 17.5063 116.331 17.0604 115.602 16.7396C114.873 16.4188 114.013 16.2604 113.019 16.2604C111.694 16.2604 110.569 16.5521 109.642 17.1375C108.715 17.7229 107.996 18.4229 107.488 19.2396C107.136 18.4021 106.54 17.6959 105.7 17.1209C104.861 16.5459 103.823 16.2604 102.588 16.2604C101.527 16.2604 100.561 16.5021 99.6897 16.9875C98.8168 17.475 98.1272 18.1146 97.6189 18.9084H97.3543V16.7896H93.2793V33.0188H97.6189ZM130.108 33.5479C131.942 33.5479 133.492 33.1396 134.763 32.3229C136.031 31.5063 137.042 30.4354 137.792 29.1104L134.183 27.3209C133.806 28.0063 133.294 28.575 132.642 29.0271C131.992 29.4792 131.169 29.7063 130.175 29.7063C129.667 29.7063 129.171 29.6354 128.686 29.4917C128.198 29.3479 127.752 29.1146 127.344 28.7959C126.936 28.475 126.592 28.0771 126.317 27.6021C126.042 27.1292 125.858 26.5604 125.771 25.8979H137.992C137.992 25.7646 138.002 25.6438 138.025 25.5334C138.025 25.4229 138.036 25.3021 138.058 25.1688V24.7709C138.058 23.5563 137.881 22.4313 137.527 21.3938C137.175 20.3563 136.656 19.4563 135.971 18.6938C135.288 17.9313 134.436 17.3354 133.421 16.9063C132.404 16.475 131.246 16.2604 129.944 16.2604C128.706 16.2604 127.575 16.4917 126.548 16.9542C125.521 17.4188 124.633 18.0417 123.883 18.8271C123.131 19.6104 122.546 20.5271 122.127 21.575C121.708 22.625 121.498 23.7334 121.498 24.9042C121.498 26.1625 121.713 27.3167 122.144 28.3646C122.575 29.4146 123.175 30.325 123.948 31.0979C124.721 31.8709 125.631 32.4709 126.681 32.9021C127.729 33.3334 128.873 33.5479 130.108 33.5479ZM133.852 22.8167H126.002C126.29 21.8688 126.786 21.1292 127.492 20.5979C128.198 20.0688 129.017 19.8042 129.944 19.8042C130.606 19.8042 131.175 19.9021 131.648 20.1021C132.123 20.3 132.521 20.5542 132.842 20.8625C133.161 21.1729 133.404 21.5042 133.571 21.8563C133.736 22.2104 133.829 22.5313 133.852 22.8167ZM148.027 33.2834C148.733 33.2834 149.379 33.2229 149.965 33.1C150.55 32.9792 151.096 32.7979 151.604 32.5542L150.377 28.7459C150.179 28.8792 149.969 28.9834 149.748 29.0604C149.527 29.1375 149.229 29.1771 148.854 29.1771C148.281 29.1771 147.84 29 147.529 28.6459C147.308 28.425 147.161 28.1542 147.083 27.8354C147.006 27.5146 146.967 27.1667 146.967 26.7917V20.5H150.942V16.7896H146.967V11.8209H142.627V16.7896H139.779V20.5H142.627V27.6188C142.627 29.4521 143.146 30.8646 144.186 31.8584C144.627 32.3 145.173 32.6479 145.825 32.9021C146.475 33.1563 147.211 33.2834 148.027 33.2834ZM158.458 33.0188V9.3042H154.121V33.0188H158.458ZM168.329 40.1729L178.496 16.7896H173.661L169.719 26.6271H169.488L165.381 16.7896H160.446L167.269 32.2229L163.658 40.1729H168.329Z" fill="black"/>
<defs>
<linearGradient id="paint0_linear_18284_294" x1="-2.80868" y1="43.1537" x2="47.5172" y2="6.70945" gradientUnits="userSpaceOnUse">
<stop stop-color="#0251E1"/>
<stop offset="0.0078125" stop-color="#0351E1"/>
<stop offset="0.015625" stop-color="#0352E1"/>
<stop offset="0.0234375" stop-color="#0353E1"/>
<stop offset="0.03125" stop-color="#0453E2"/>
<stop offset="0.0390625" stop-color="#0454E2"/>
<stop offset="0.046875" stop-color="#0455E2"/>
<stop offset="0.0546875" stop-color="#0555E3"/>
<stop offset="0.0625" stop-color="#0556E3"/>
<stop offset="0.0703125" stop-color="#0557E3"/>
<stop offset="0.078125" stop-color="#0557E4"/>
<stop offset="0.0859375" stop-color="#0658E4"/>
<stop offset="0.09375" stop-color="#0659E4"/>
<stop offset="0.101563" stop-color="#0659E5"/>
<stop offset="0.109375" stop-color="#075AE5"/>
<stop offset="0.117188" stop-color="#075BE5"/>
<stop offset="0.125" stop-color="#075BE5"/>
<stop offset="0.132813" stop-color="#085CE6"/>
<stop offset="0.140625" stop-color="#085DE6"/>
<stop offset="0.148438" stop-color="#085DE6"/>
<stop offset="0.15625" stop-color="#095EE7"/>
<stop offset="0.164063" stop-color="#095FE7"/>
<stop offset="0.171875" stop-color="#095FE7"/>
<stop offset="0.179688" stop-color="#0A60E8"/>
<stop offset="0.1875" stop-color="#0A61E8"/>
<stop offset="0.195313" stop-color="#0A61E8"/>
<stop offset="0.203125" stop-color="#0B62E9"/>
<stop offset="0.210938" stop-color="#0B62E9"/>
<stop offset="0.21875" stop-color="#0B63E9"/>
<stop offset="0.226563" stop-color="#0C64EA"/>
<stop offset="0.234375" stop-color="#0C64EA"/>
<stop offset="0.242188" stop-color="#0C65EA"/>
<stop offset="0.25" stop-color="#0C66EB"/>
<stop offset="0.257813" stop-color="#0D66EB"/>
<stop offset="0.265625" stop-color="#0D67EB"/>
<stop offset="0.273438" stop-color="#0D68EC"/>
<stop offset="0.28125" stop-color="#0E68EC"/>
<stop offset="0.289062" stop-color="#0E69EC"/>
<stop offset="0.296875" stop-color="#0E6AEC"/>
<stop offset="0.304688" stop-color="#0F6AED"/>
<stop offset="0.3125" stop-color="#0F6BED"/>
<stop offset="0.320313" stop-color="#0F6CED"/>
<stop offset="0.328125" stop-color="#106CEE"/>
<stop offset="0.335938" stop-color="#106DEE"/>
<stop offset="0.34375" stop-color="#106EEE"/>
<stop offset="0.351563" stop-color="#116EEF"/>
<stop offset="0.359375" stop-color="#116FEF"/>
<stop offset="0.367188" stop-color="#1170EF"/>
<stop offset="0.375" stop-color="#1270F0"/>
<stop offset="0.382813" stop-color="#1271F0"/>
<stop offset="0.390625" stop-color="#1272F0"/>
<stop offset="0.398438" stop-color="#1272F1"/>
<stop offset="0.40625" stop-color="#1373F1"/>
<stop offset="0.414063" stop-color="#1374F1"/>
<stop offset="0.420009" stop-color="#1374F2"/>
<stop offset="0.421875" stop-color="#1475F2"/>
<stop offset="0.429688" stop-color="#1475F2"/>
<stop offset="0.4375" stop-color="#1476F2"/>
<stop offset="0.445313" stop-color="#1476F3"/>
<stop offset="0.453125" stop-color="#1577F3"/>
<stop offset="0.460938" stop-color="#1578F3"/>
<stop offset="0.46875" stop-color="#1578F3"/>
<stop offset="0.476563" stop-color="#1679F4"/>
<stop offset="0.484375" stop-color="#167AF4"/>
<stop offset="0.492188" stop-color="#167AF4"/>
<stop offset="0.5" stop-color="#177BF5"/>
<stop offset="0.507813" stop-color="#177BF5"/>
<stop offset="0.515625" stop-color="#177CF5"/>
<stop offset="0.523438" stop-color="#187DF6"/>
<stop offset="0.53125" stop-color="#187DF6"/>
<stop offset="0.539063" stop-color="#187EF6"/>
<stop offset="0.546875" stop-color="#197FF7"/>
<stop offset="0.554688" stop-color="#197FF7"/>
<stop offset="0.5625" stop-color="#1980F7"/>
<stop offset="0.570312" stop-color="#1981F8"/>
<stop offset="0.578125" stop-color="#1A81F8"/>
<stop offset="0.579991" stop-color="#1A82F8"/>
<stop offset="0.585938" stop-color="#1A82F8"/>
<stop offset="0.59375" stop-color="#1A83F9"/>
<stop offset="0.601562" stop-color="#1B83F9"/>
<stop offset="0.609375" stop-color="#1B84F9"/>
<stop offset="0.617188" stop-color="#1B85FA"/>
<stop offset="0.625" stop-color="#1C85FA"/>
<stop offset="0.632812" stop-color="#1C86FA"/>
<stop offset="0.640625" stop-color="#1C87FA"/>
<stop offset="0.648438" stop-color="#1D87FB"/>
<stop offset="0.65625" stop-color="#1D88FB"/>
<stop offset="0.664063" stop-color="#1D89FB"/>
<stop offset="0.671875" stop-color="#1E89FC"/>
<stop offset="0.679688" stop-color="#1E8AFC"/>
<stop offset="0.6875" stop-color="#1E8BFC"/>
<stop offset="0.695313" stop-color="#1F8BFD"/>
<stop offset="0.703125" stop-color="#1F8CFD"/>
<stop offset="0.710938" stop-color="#1F8DFD"/>
<stop offset="0.71875" stop-color="#208DFE"/>
<stop offset="0.726563" stop-color="#208EFE"/>
<stop offset="0.734375" stop-color="#208FFE"/>
<stop offset="0.742188" stop-color="#208FFF"/>
<stop offset="0.75" stop-color="#2190FF"/>
<stop offset="1" stop-color="#2190FF"/>
</linearGradient>
</defs>
</svg>
