<svg width="380" height="101" viewBox="0 0 380 101" fill="none" xmlns="http://www.w3.org/2000/svg">
<g clip-path="url(#clip0_18615_325)">
<path d="M47.8708 71.8794C59.961 71.8794 69.762 62.3082 69.762 50.5015C69.762 38.6948 59.961 29.1235 47.8708 29.1235C35.7806 29.1235 25.9795 38.6948 25.9795 50.5015C25.9795 62.3082 35.7806 71.8794 47.8708 71.8794Z" fill="#0A0B0B"/>
<path d="M47.8714 7.74624C56.0781 7.66689 64.1424 9.84174 71.1444 14.0227C78.1463 18.2036 83.8039 24.2223 87.4718 31.392C91.1396 38.5618 92.67 46.594 91.8883 54.5722C91.1067 62.5505 88.0444 70.1535 83.0509 76.514C78.0574 82.8745 71.3338 87.7364 63.6471 90.5449C55.9603 93.3534 47.62 93.9954 39.5776 92.3979C31.5351 90.8003 24.1144 87.0274 18.162 81.5095C12.2097 75.9917 7.96527 68.9512 5.91309 61.1911" stroke="#0A0B0B" stroke-width="11" stroke-linecap="round"/>
<path d="M107.729 92V36.8451H118.739V47.9577L117.72 46.3265C118.943 42.7242 120.914 40.1415 123.633 38.5783C126.352 36.9471 129.614 36.1315 133.42 36.1315H136.784V46.6323H131.993C128.187 46.6323 125.094 47.8217 122.715 50.2006C120.404 52.5114 119.249 55.8418 119.249 60.1917V92H107.729ZM174.129 93.2234C169.847 93.2234 165.939 92.3398 162.405 90.5727C158.939 88.8056 156.254 86.2568 154.351 82.9265L155.676 80.7855V92H144.666V14.824H156.186V48.2635L154.351 45.6128C156.39 42.4864 159.108 40.0396 162.507 38.2724C165.905 36.5053 169.779 35.6217 174.129 35.6217C179.363 35.6217 184.052 36.8791 188.198 39.3939C192.412 41.9087 195.708 45.341 198.087 49.6908C200.534 54.0407 201.757 58.9343 201.757 64.3716C201.757 69.8089 200.534 74.7025 198.087 79.0524C195.708 83.4022 192.446 86.8685 188.3 89.4513C184.154 91.966 179.43 93.2234 174.129 93.2234ZM173.008 82.5187C176.27 82.5187 179.159 81.7371 181.673 80.1738C184.188 78.6106 186.159 76.4696 187.586 73.751C189.082 70.9644 189.829 67.8379 189.829 64.3716C189.829 60.9053 189.082 57.8128 187.586 55.0942C186.159 52.3755 184.188 50.2346 181.673 48.6713C179.159 47.1081 176.27 46.3265 173.008 46.3265C169.813 46.3265 166.925 47.1081 164.342 48.6713C161.827 50.2346 159.822 52.3755 158.327 55.0942C156.9 57.8128 156.186 60.9053 156.186 64.3716C156.186 67.8379 156.9 70.9644 158.327 73.751C159.822 76.4696 161.827 78.6106 164.342 80.1738C166.925 81.7371 169.813 82.5187 173.008 82.5187ZM212.964 92V36.8451H224.484V92H212.964ZM212.964 29.3009V16.0474H224.484V29.3009H212.964ZM261.81 92.6117C256.033 92.6117 251.547 90.9805 248.353 87.7181C245.158 84.4557 243.561 79.868 243.561 73.9549V47.244H233.876V36.8451H235.405C237.988 36.8451 239.993 36.0975 241.42 34.6022C242.847 33.107 243.561 31.068 243.561 28.4853V24.2034H255.081V36.8451H267.621V47.244H255.081V73.4451C255.081 75.3482 255.387 76.9794 255.999 78.3387C256.61 79.6301 257.596 80.6496 258.955 81.3972C260.315 82.0769 262.082 82.4167 264.257 82.4167C264.8 82.4167 265.412 82.3827 266.092 82.3148C266.771 82.2468 267.417 82.1788 268.029 82.1109V92C267.077 92.1359 266.024 92.2719 264.868 92.4078C263.713 92.5437 262.693 92.6117 261.81 92.6117ZM291.485 92L318.196 16.0474H333.081L359.792 92H346.946L341.135 74.9744H310.244L304.331 92H291.485ZM313.71 64.2696H337.465L324.007 24.5092H327.372L313.71 64.2696ZM368.802 92V16.0474H380.832V92H368.802Z" fill="#0A0B0B"/>
</g>
<defs>
<clipPath id="clip0_18615_325">
<rect width="380" height="101" fill="white"/>
</clipPath>
</defs>
</svg>
