<svg width="204" height="49" viewBox="0 0 204 49" fill="none" xmlns="http://www.w3.org/2000/svg">
<g clip-path="url(#clip0_18546_319)">
<path d="M27.8662 37H8.05078L16.543 25.6924H36.3594L27.8662 37ZM40.2539 23.3066H11.3076L0 12H40.2539V23.3066Z" fill="#030D17"/>
<path d="M70.5636 18.7756C70.4499 17.6297 69.9622 16.7396 69.1005 16.1051C68.2388 15.4706 67.0692 15.1534 65.592 15.1534C64.5882 15.1534 63.7406 15.2955 63.0494 15.5795C62.3581 15.8542 61.8278 16.2377 61.4585 16.7301C61.0986 17.2225 60.9187 17.7812 60.9187 18.4062C60.8997 18.9271 61.0086 19.3816 61.2454 19.7699C61.4916 20.1581 61.8278 20.4943 62.2539 20.7784C62.68 21.053 63.1725 21.2945 63.7312 21.5028C64.2899 21.7017 64.8865 21.8722 65.521 22.0142L68.1346 22.6392C69.4035 22.9233 70.5683 23.3021 71.6289 23.7756C72.6895 24.2491 73.6081 24.8314 74.3846 25.5227C75.1611 26.214 75.7624 27.0284 76.1886 27.9659C76.6242 28.9034 76.8467 29.9782 76.8562 31.1903C76.8467 32.9706 76.3922 34.5142 75.4925 35.821C74.6024 37.1184 73.3145 38.1269 71.6289 38.8466C69.9528 39.5568 67.931 39.9119 65.5636 39.9119C63.2151 39.9119 61.1696 39.5521 59.4272 38.8324C57.6942 38.1127 56.3401 37.0473 55.3647 35.6364C54.3988 34.2159 53.8922 32.4593 53.8448 30.3665H59.7965C59.8628 31.3419 60.1422 32.1562 60.6346 32.8097C61.1365 33.4536 61.8041 33.9413 62.6374 34.2727C63.4802 34.5947 64.4319 34.7557 65.4925 34.7557C66.5342 34.7557 67.4386 34.6042 68.2056 34.3011C68.9821 33.9981 69.5835 33.5767 70.0096 33.0369C70.4357 32.4972 70.6488 31.8769 70.6488 31.1761C70.6488 30.5227 70.4547 29.9735 70.0664 29.5284C69.6876 29.0833 69.1289 28.7045 68.3903 28.392C67.6611 28.0795 66.7662 27.7955 65.7056 27.5398L62.538 26.7443C60.0853 26.1477 58.1488 25.215 56.7283 23.946C55.3079 22.6771 54.6024 20.9678 54.6119 18.8182C54.6024 17.0568 55.0711 15.518 56.0181 14.2017C56.9746 12.8854 58.2861 11.858 59.9528 11.1193C61.6194 10.3807 63.5134 10.0114 65.6346 10.0114C67.7937 10.0114 69.6781 10.3807 71.288 11.1193C72.9073 11.858 74.1668 12.8854 75.0664 14.2017C75.966 15.518 76.43 17.0426 76.4585 18.7756H70.5636ZM80.8796 39.5V17.6818H86.9308V39.5H80.8796ZM83.9194 14.8693C83.0198 14.8693 82.248 14.571 81.604 13.9744C80.9696 13.3684 80.6523 12.6439 80.6523 11.8011C80.6523 10.9678 80.9696 10.2528 81.604 9.65625C82.248 9.05019 83.0198 8.74716 83.9194 8.74716C84.819 8.74716 85.5861 9.05019 86.2205 9.65625C86.8645 10.2528 87.1864 10.9678 87.1864 11.8011C87.1864 12.6439 86.8645 13.3684 86.2205 13.9744C85.5861 14.571 84.819 14.8693 83.9194 14.8693ZM101.608 48.1364C99.6474 48.1364 97.9665 47.8665 96.565 47.3267C95.1729 46.7964 94.065 46.072 93.2411 45.1534C92.4173 44.2348 91.8822 43.2027 91.636 42.0568L97.2326 41.304C97.4031 41.7396 97.6729 42.1468 98.0423 42.5256C98.4116 42.9044 98.8993 43.2074 99.5053 43.4347C100.121 43.6714 100.869 43.7898 101.75 43.7898C103.066 43.7898 104.15 43.4678 105.002 42.8239C105.864 42.1894 106.295 41.1241 106.295 39.6278V35.6364H106.039C105.774 36.2424 105.377 36.8153 104.846 37.3551C104.316 37.8949 103.634 38.3352 102.801 38.6761C101.967 39.017 100.973 39.1875 99.8178 39.1875C98.1796 39.1875 96.6881 38.8087 95.3434 38.0511C94.0082 37.2841 92.9428 36.1146 92.1474 34.5426C91.3614 32.9612 90.9684 30.9631 90.9684 28.5483C90.9684 26.0767 91.3709 24.0123 92.1758 22.3551C92.9807 20.6979 94.0508 19.4574 95.386 18.6335C96.7307 17.8097 98.2032 17.3977 99.8036 17.3977C101.025 17.3977 102.048 17.6061 102.872 18.0227C103.696 18.4299 104.359 18.9413 104.86 19.5568C105.372 20.1629 105.765 20.7595 106.039 21.3466H106.267V17.6818H112.275V39.7131C112.275 41.5691 111.821 43.1222 110.912 44.3722C110.002 45.6222 108.743 46.5597 107.133 47.1847C105.533 47.8191 103.691 48.1364 101.608 48.1364ZM101.735 34.642C102.711 34.642 103.535 34.4006 104.207 33.9176C104.889 33.4252 105.41 32.7244 105.77 31.8153C106.139 30.8968 106.324 29.7983 106.324 28.5199C106.324 27.2415 106.144 26.1335 105.784 25.196C105.424 24.2491 104.903 23.5152 104.221 22.9943C103.539 22.4735 102.711 22.2131 101.735 22.2131C100.741 22.2131 99.9031 22.483 99.2212 23.0227C98.5394 23.553 98.0233 24.2917 97.6729 25.2386C97.3226 26.1856 97.1474 27.2794 97.1474 28.5199C97.1474 29.7794 97.3226 30.8684 97.6729 31.7869C98.0328 32.696 98.5489 33.4015 99.2212 33.9034C99.9031 34.3958 100.741 34.642 101.735 34.642ZM123.142 26.8864V39.5H117.091V10.4091H122.971V21.5312H123.227C123.719 20.2434 124.515 19.2348 125.613 18.5057C126.712 17.767 128.09 17.3977 129.747 17.3977C131.262 17.3977 132.583 17.7292 133.71 18.392C134.846 19.0455 135.727 19.9877 136.352 21.2188C136.986 22.4403 137.299 23.9034 137.289 25.608V39.5H131.238V26.6875C131.248 25.3428 130.907 24.2964 130.216 23.5483C129.534 22.8002 128.577 22.4261 127.346 22.4261C126.522 22.4261 125.793 22.6013 125.159 22.9517C124.534 23.3021 124.041 23.8134 123.681 24.4858C123.331 25.1487 123.151 25.9489 123.142 26.8864ZM153.657 17.6818V22.2273H140.517V17.6818H153.657ZM143.5 12.4545H149.551V32.7955C149.551 33.3542 149.637 33.7898 149.807 34.1023C149.978 34.4053 150.214 34.6184 150.517 34.7415C150.83 34.8646 151.19 34.9261 151.597 34.9261C151.881 34.9261 152.165 34.9025 152.449 34.8551C152.733 34.7983 152.951 34.7557 153.103 34.7273L154.054 39.2301C153.751 39.3248 153.325 39.4337 152.776 39.5568C152.227 39.6894 151.559 39.7699 150.773 39.7983C149.315 39.8551 148.036 39.661 146.938 39.2159C145.849 38.7708 145.001 38.0795 144.395 37.142C143.789 36.2045 143.491 35.0208 143.5 33.5909V12.4545ZM171.984 39.5H165.393L175.436 10.4091H183.362L193.39 39.5H186.799L179.512 17.0568H179.285L171.984 39.5ZM171.572 28.0653H187.14V32.8665H171.572V28.0653ZM203.042 10.4091V39.5H196.892V10.4091H203.042Z" fill="#030D17"/>
</g>
<defs>
<clipPath id="clip0_18546_319">
<rect width="204" height="49" fill="white"/>
</clipPath>
</defs>
</svg>
