<svg width="311" height="50" viewBox="0 0 311 50" fill="none" xmlns="http://www.w3.org/2000/svg">
<path d="M8.41053 31.3404L8.43948 20.2374H9.74232L17.9647 9.75679H28.5321L16.2999 24.7684H13.839L8.41053 31.3404ZM0 39.0272V0H9.32251V39.0272H0ZM18.1818 39.0272L10.524 26.8674L16.6618 20.2519L28.9519 39.0272H18.1818Z" fill="black"/>
<path d="M45.5585 39.5773C42.4968 39.5773 39.8586 38.9766 37.6401 37.7678C35.4289 36.5519 33.7244 34.8147 32.5301 32.5565C31.3431 30.2982 30.7496 27.6166 30.7496 24.5079C30.7496 21.4896 31.3467 18.8441 32.5446 16.575C33.7389 14.3096 35.4253 12.5435 37.5967 11.2768C39.7681 10.0138 42.3231 9.38049 45.269 9.38049C47.3535 9.38049 49.2571 9.7062 50.987 10.3504C52.7132 10.9982 54.2043 11.9572 55.46 13.2311C56.7231 14.4977 57.7038 16.0611 58.3987 17.9213C59.1007 19.7851 59.4554 21.9167 59.4554 24.3197V26.6358H34.0067V21.2218H50.7843C50.7735 20.2375 50.5382 19.3617 50.075 18.5872C49.619 17.8055 48.9929 17.1975 48.1931 16.7632C47.4006 16.3217 46.4922 16.0973 45.4716 16.0973C44.4294 16.0973 43.4921 16.329 42.6633 16.7922C41.8418 17.2554 41.1904 17.8887 40.7091 18.6885C40.2241 19.4811 39.9708 20.3786 39.9418 21.3811V26.8819C39.9418 28.0798 40.1734 29.1257 40.6367 30.0232C41.1071 30.9207 41.773 31.6156 42.6344 32.1077C43.5029 32.5999 44.5343 32.846 45.7322 32.846C46.561 32.846 47.3101 32.7374 47.976 32.5131C48.6491 32.2815 49.2281 31.9449 49.7131 31.4998C50.1944 31.0582 50.5563 30.5118 50.7988 29.864L59.3541 30.1101C58.9958 32.0317 58.2177 33.7001 57.0235 35.1187C55.8256 36.5301 54.2513 37.6231 52.3043 38.4048C50.3645 39.1865 48.1135 39.5773 45.5585 39.5773Z" fill="black"/>
<path d="M69.9373 50C68.8154 50 67.7587 49.9131 66.7671 49.7394C65.7719 49.5729 64.9214 49.3522 64.2193 49.0735L66.2749 42.2988C67.1905 42.6064 68.0193 42.7837 68.7648 42.8344C69.5067 42.8923 70.1472 42.7765 70.6901 42.487C71.2293 42.1974 71.6455 41.6908 71.935 40.967L72.2969 40.0984L61.8887 9.75684H71.6455L77.045 30.6456H77.349L82.8209 9.75684H92.6211L81.5905 41.8355C81.0585 43.4279 80.3057 44.8357 79.3322 46.0625C78.3659 47.2857 77.1174 48.2484 75.5829 48.9432C74.0485 49.6453 72.1666 50 69.9373 50Z" fill="black"/>
<path d="M101.661 39.0272L94.0318 9.75684H103.398L107.335 28.5032H107.581L111.808 9.75684H120.943L125.285 28.3729H125.531L129.368 9.75684H138.719L131.076 39.0272H121.116L116.542 21.9745H116.223L111.649 39.0272H101.661Z" fill="black"/>
<path d="M156.138 39.5773C153.058 39.5773 150.42 38.9476 148.22 37.681C146.019 36.418 144.319 34.6519 143.124 32.3828C141.937 30.1173 141.344 27.4863 141.344 24.4934C141.344 21.4824 141.937 18.8441 143.124 16.575C144.319 14.3096 146.019 12.5435 148.22 11.2768C150.42 10.0138 153.058 9.38049 156.138 9.38049C159.207 9.38049 161.842 10.0138 164.042 11.2768C166.25 12.5435 167.951 14.3096 169.138 16.575C170.325 18.8441 170.918 21.4824 170.918 24.4934C170.918 27.4863 170.325 30.1173 169.138 32.3828C167.951 34.6519 166.25 36.418 164.042 37.681C161.842 38.9476 159.207 39.5773 156.138 39.5773ZM156.196 32.542C157.314 32.542 158.259 32.2018 159.033 31.5142C159.804 30.8302 160.398 29.8784 160.814 28.6625C161.226 27.4392 161.436 26.0278 161.436 24.4355C161.436 22.8069 161.226 21.3811 160.814 20.1651C160.398 18.9419 159.804 17.9864 159.033 17.2988C158.259 16.6149 157.314 16.271 156.196 16.271C155.038 16.271 154.061 16.6149 153.272 17.2988C152.479 17.9864 151.875 18.9419 151.462 20.1651C151.046 21.3811 150.84 22.8069 150.84 24.4355C150.84 26.0278 151.046 27.4392 151.462 28.6625C151.875 29.8784 152.479 30.8302 153.272 31.5142C154.061 32.2018 155.038 32.542 156.196 32.542Z" fill="black"/>
<path d="M175.704 39.0271V9.75677H184.752V15.0984H185.056C185.595 13.1586 186.467 11.7183 187.676 10.7701C188.881 9.82553 190.285 9.35144 191.889 9.35144C192.312 9.35144 192.75 9.38039 193.206 9.4383C193.669 9.4962 194.096 9.58306 194.494 9.69886V17.8054C194.049 17.6534 193.466 17.5304 192.743 17.4435C192.026 17.3494 191.389 17.2987 190.832 17.2987C189.732 17.2987 188.736 17.5448 187.85 18.037C186.97 18.5292 186.279 19.2096 185.78 20.0781C185.277 20.9467 185.027 21.9672 185.027 23.1325V39.0271H175.704Z" fill="black"/>
<path d="M209.001 39.447C206.837 39.447 204.876 38.8896 203.11 37.7678C201.343 36.6495 199.928 34.9739 198.868 32.7446C197.815 30.5081 197.29 27.7287 197.29 24.4065C197.29 20.972 197.833 18.1456 198.926 15.9235C200.026 13.6943 201.459 12.0512 203.225 10.9872C204.999 9.91603 206.909 9.38042 208.958 9.38042C210.492 9.38042 211.802 9.64822 212.895 10.1766C213.995 10.6977 214.897 11.3745 215.602 12.2032C216.315 13.0247 216.854 13.8788 217.224 14.7655H217.412V0H226.734V39.0272H217.513V34.2791H217.224C216.825 35.1874 216.268 36.0379 215.544 36.8268C214.821 37.6085 213.912 38.2418 212.823 38.7232C211.741 39.2045 210.467 39.447 209.001 39.447ZM212.229 32.18C213.358 32.18 214.321 31.8616 215.125 31.2246C215.924 30.5805 216.543 29.6721 216.977 28.5032C217.412 27.3378 217.629 25.9662 217.629 24.392C217.629 22.7924 217.415 21.4172 216.992 20.2663C216.565 19.1083 215.95 18.2216 215.139 17.6028C214.328 16.9767 213.358 16.6618 212.229 16.6618C211.079 16.6618 210.105 16.9803 209.305 17.6172C208.502 18.2469 207.894 19.1372 207.481 20.2953C207.065 21.4534 206.859 22.8213 206.859 24.392C206.859 25.9662 207.065 27.3378 207.481 28.5032C207.905 29.6721 208.513 30.5805 209.305 31.2246C210.105 31.8616 211.079 32.18 212.229 32.18Z" fill="black"/>
<path d="M232.645 39.0272V9.75687H241.504V15.1274H241.837C242.445 13.3541 243.473 11.9536 244.92 10.9294C246.368 9.89801 248.094 9.38049 250.103 9.38049C252.129 9.38049 253.866 9.90163 255.314 10.9439C256.769 11.9862 257.692 13.3831 258.079 15.1274H258.397C258.936 13.3903 259.997 12.0006 261.582 10.9584C263.174 9.90887 265.049 9.38049 267.213 9.38049C269.982 9.38049 272.229 10.2708 273.959 12.0441C275.685 13.8101 276.55 16.2385 276.55 19.3255V39.0272H267.228V21.4534C267.228 19.9986 266.851 18.8876 266.098 18.124C265.353 17.3531 264.383 16.9659 263.189 16.9659C261.904 16.9659 260.894 17.3821 260.163 18.2108C259.44 19.0432 259.078 20.1578 259.078 21.5548V39.0272H250.117V21.3666C250.117 20.0058 249.744 18.9346 249.002 18.1529C248.268 17.364 247.298 16.9659 246.093 16.9659C245.282 16.9659 244.562 17.1613 243.936 17.5449C243.317 17.9322 242.836 18.4822 242.488 19.1952C242.141 19.9009 241.967 20.7369 241.967 21.6995V39.0272H232.645Z" fill="#7878F0"/>
<mask id="mask0_71_82" style="mask-type:luminance" maskUnits="userSpaceOnUse" x="281" y="8" width="30" height="33">
<path d="M281.146 8.90247H310.609V40.4021H281.146V8.90247Z" fill="white"/>
</mask>
<g mask="url(#mask0_71_82)">
<path d="M296.019 39.5773C292.958 39.5773 290.319 38.9766 288.101 37.7678C285.89 36.5519 284.185 34.8147 282.991 32.5565C281.804 30.2982 281.21 27.6166 281.21 24.5079C281.21 21.4896 281.808 18.8441 283.005 16.575C284.2 14.3096 285.886 12.5435 288.058 11.2768C290.229 10.0138 292.784 9.38049 295.73 9.38049C297.814 9.38049 299.718 9.7062 301.448 10.3504C303.174 10.9982 304.665 11.9572 305.921 13.2311C307.184 14.4977 308.165 16.0611 308.859 17.9213C309.562 19.7851 309.916 21.9167 309.916 24.3197V26.6358H284.468V21.2218H301.245C301.234 20.2375 300.999 19.3617 300.536 18.5872C300.08 17.8055 299.454 17.1975 298.654 16.7632C297.861 16.3217 296.953 16.0973 295.932 16.0973C294.89 16.0973 293.953 16.329 293.124 16.7922C292.303 17.2554 291.651 17.8887 291.17 18.6885C290.685 19.4811 290.432 20.3786 290.403 21.3811V26.8819C290.403 28.0798 290.634 29.1257 291.097 30.0232C291.568 30.9207 292.234 31.6156 293.095 32.1077C293.964 32.5999 294.995 32.846 296.193 32.846C297.022 32.846 297.771 32.7374 298.437 32.5131C299.11 32.2815 299.689 31.9449 300.174 31.4998C300.655 31.0582 301.017 30.5118 301.26 29.864L309.815 30.1101C309.457 32.0317 308.679 33.7001 307.484 35.1187C306.286 36.5301 304.712 37.6231 302.765 38.4048C300.825 39.1865 298.574 39.5773 296.019 39.5773Z" fill="#7878F0"/>
</g>
</svg>
